<mxfile host="app.diagrams.net" agent="Mozilla/5.0 (Windows NT 10.0; Win64; x64) AppleWebKit/537.36 (KHTML, like Gecko) Chrome/131.0.0.0 Safari/537.36" version="25.0.3">
  <diagram name="Página-1" id="fKPe8ztSodnws2ul9CdE">
    <mxGraphModel dx="1373" dy="731" grid="1" gridSize="10" guides="1" tooltips="1" connect="1" arrows="1" fold="1" page="1" pageScale="1" pageWidth="827" pageHeight="1169" math="0" shadow="0">
      <root>
        <mxCell id="0" />
        <mxCell id="1" parent="0" />
        <mxCell id="Oh8FK2zyh--omqNR-Jqu-3" style="edgeStyle=orthogonalEdgeStyle;rounded=0;orthogonalLoop=1;jettySize=auto;html=1;exitX=1;exitY=0.172;exitDx=0;exitDy=0;entryX=0;entryY=0.5;entryDx=0;entryDy=0;exitPerimeter=0;strokeWidth=3;endArrow=diamond;endFill=1;" parent="1" source="Oh8FK2zyh--omqNR-Jqu-1" target="Oh8FK2zyh--omqNR-Jqu-2" edge="1">
          <mxGeometry relative="1" as="geometry" />
        </mxCell>
        <mxCell id="Oh8FK2zyh--omqNR-Jqu-6" style="edgeStyle=orthogonalEdgeStyle;rounded=1;orthogonalLoop=1;jettySize=auto;html=1;entryX=0;entryY=0.5;entryDx=0;entryDy=0;strokeWidth=3;endArrow=diamond;endFill=0;curved=0;" parent="1" source="Oh8FK2zyh--omqNR-Jqu-1" target="Oh8FK2zyh--omqNR-Jqu-5" edge="1">
          <mxGeometry relative="1" as="geometry" />
        </mxCell>
        <mxCell id="Oh8FK2zyh--omqNR-Jqu-8" style="edgeStyle=orthogonalEdgeStyle;rounded=1;orthogonalLoop=1;jettySize=auto;html=1;exitX=1;exitY=0.75;exitDx=0;exitDy=0;entryX=0;entryY=0.5;entryDx=0;entryDy=0;strokeWidth=3;endArrow=diamond;endFill=0;curved=0;" parent="1" source="Oh8FK2zyh--omqNR-Jqu-1" target="Oh8FK2zyh--omqNR-Jqu-7" edge="1">
          <mxGeometry relative="1" as="geometry">
            <Array as="points">
              <mxPoint x="1040" y="587" />
              <mxPoint x="1040" y="800" />
            </Array>
          </mxGeometry>
        </mxCell>
        <mxCell id="Oh8FK2zyh--omqNR-Jqu-10" style="edgeStyle=orthogonalEdgeStyle;rounded=1;orthogonalLoop=1;jettySize=auto;html=1;exitX=0.75;exitY=1;exitDx=0;exitDy=0;entryX=0.5;entryY=0;entryDx=0;entryDy=0;strokeWidth=3;curved=0;endArrow=diamond;endFill=0;" parent="1" source="Oh8FK2zyh--omqNR-Jqu-1" target="Oh8FK2zyh--omqNR-Jqu-9" edge="1">
          <mxGeometry relative="1" as="geometry" />
        </mxCell>
        <mxCell id="Oh8FK2zyh--omqNR-Jqu-1" value="&lt;p style=&quot;margin:0px;margin-top:4px;text-align:center;&quot;&gt;&lt;b&gt;AlertUtil&lt;/b&gt;&lt;/p&gt;&lt;hr size=&quot;1&quot; style=&quot;border-style:solid;&quot;&gt;&lt;p style=&quot;margin:0px;margin-left:4px;&quot;&gt;&amp;nbsp;- alertService: AlertService&lt;/p&gt;&lt;hr size=&quot;1&quot; style=&quot;border-style:solid;&quot;&gt;&lt;p style=&quot;margin:0px;margin-left:4px;&quot;&gt;&lt;span style=&quot;background-color: initial;&quot;&gt;&lt;i&gt;&lt;font color=&quot;#5e5e5e&quot;&gt;&amp;nbsp;// Divide os avisos entre MSISDN e ICCID com condicionais nos métodos.&lt;/font&gt;&lt;/i&gt;&lt;/span&gt;&lt;/p&gt;&lt;p style=&quot;margin:0px;margin-left:4px;&quot;&gt;&lt;span style=&quot;background-color: initial;&quot;&gt;&lt;br&gt;&lt;/span&gt;&lt;/p&gt;&lt;p style=&quot;margin:0px;margin-left:4px;&quot;&gt;&lt;span style=&quot;background-color: initial;&quot;&gt;+ createAlertSimInvalidPhase(serviceOrder: ServiceOrder, sim: Sim, isICCIDAttribute: boolean)&lt;/span&gt;&lt;/p&gt;&lt;p style=&quot;margin:0px;margin-left:4px;&quot;&gt;+ createAlertSimcardInvalidPhase(serviceOrder: ServiceOrder, simcard: Simcard)&lt;/p&gt;&lt;p style=&quot;margin:0px;margin-left:4px;&quot;&gt;+ createAlertSimOperatorIsDifferentFromServiceOrder(serviceOrder: ServiceOrder, sim: Sim, isICCIDAttribute: boolean)&lt;/p&gt;&lt;p style=&quot;margin:0px;margin-left:4px;&quot;&gt;+ createAlertSimcardOperatorIsDifferentFromServiceOrder(serviceOrder: ServiceOrder, simcard: Simcard)&lt;/p&gt;&lt;p style=&quot;margin:0px;margin-left:4px;&quot;&gt;+ createAlertSimCustomerIsDifferentFromServiceOrder(serviceOrder: ServiceOrder, sim: Sim, isICCIDAttribute: boolean)&lt;/p&gt;&lt;p style=&quot;margin:0px;margin-left:4px;&quot;&gt;+ createAlertSimHasNotCustomer(serviceOrder: ServiceOrder, sim: Sim: boolean isICCIDAttribute: boolean)&lt;/p&gt;&lt;p style=&quot;margin:0px;margin-left:4px;&quot;&gt;+ createAlertSimNotRegisteredPhase(serviceOrder: ServiceOrder, sim: Sim, isICCIDAttribute: boolean)&lt;/p&gt;&lt;p style=&quot;margin:0px;margin-left:4px;&quot;&gt;+ createAlertSimsHasNotBeenTestedWith(serviceOrder: ServiceOrder, sim: Sim, isICCIDAttribute: boolean)&lt;/p&gt;&lt;p style=&quot;margin:0px;margin-left:4px;&quot;&gt;+ createAlertSimNotRegistered(serviceOrder: ServiceOrder, sim: Sim, isICCIDAttribute: boolean)&lt;/p&gt;&lt;p style=&quot;margin:0px;margin-left:4px;&quot;&gt;+ createAlertSimInvalidStatus(serviceOrder: ServiceOrder, sim: Sim, isICCIDAttribute: boolean)&lt;/p&gt;&lt;p style=&quot;margin:0px;margin-left:4px;&quot;&gt;+ createAlertSimInvalidInventory(serviceOrder: ServiceOrder, sim: Sim)&lt;/p&gt;&lt;p style=&quot;margin:0px;margin-left:4px;&quot;&gt;+ createAlertSimHasPlanGroupDifferent(serviceOrder: ServiceOrder, sim: Sim, isICCIDAttribute)&lt;/p&gt;" style="verticalAlign=top;align=left;overflow=fill;html=1;whiteSpace=wrap;" parent="1" vertex="1">
          <mxGeometry x="330" y="400" width="670" height="260" as="geometry" />
        </mxCell>
        <mxCell id="Oh8FK2zyh--omqNR-Jqu-2" value="&lt;p style=&quot;margin:0px;margin-top:4px;text-align:center;&quot;&gt;&lt;b&gt;AlertService&lt;/b&gt;&lt;/p&gt;&lt;hr size=&quot;1&quot; style=&quot;border-style:solid;&quot;&gt;&lt;p style=&quot;margin:0px;margin-left:4px;&quot;&gt;&lt;i&gt;&lt;font color=&quot;#5e5e5e&quot;&gt;// Classe que fornece métodos que geram diferentes alertas no LSM, sem nenhuma verificação.&lt;/font&gt;&lt;/i&gt;&lt;/p&gt;" style="verticalAlign=top;align=left;overflow=fill;html=1;whiteSpace=wrap;" parent="1" vertex="1">
          <mxGeometry x="1161" y="400" width="369" height="90" as="geometry" />
        </mxCell>
        <mxCell id="Oh8FK2zyh--omqNR-Jqu-5" value="&lt;p style=&quot;margin:0px;margin-top:4px;text-align:center;&quot;&gt;&lt;b&gt;Sim&lt;/b&gt;&lt;/p&gt;&lt;hr size=&quot;1&quot; style=&quot;border-style:solid;&quot;&gt;&lt;p style=&quot;margin:0px;margin-left:4px;&quot;&gt;&lt;i&gt;&lt;font color=&quot;#5e5e5e&quot;&gt;&amp;nbsp;// Classe que representa a entidade Sim&lt;/font&gt;&lt;/i&gt;&lt;/p&gt;&lt;p style=&quot;margin:0px;margin-left:4px;&quot;&gt;&lt;i&gt;&lt;font color=&quot;#5e5e5e&quot;&gt;&lt;br&gt;&lt;/font&gt;&lt;/i&gt;&lt;/p&gt;&lt;p style=&quot;margin:0px;margin-left:4px;&quot;&gt;&lt;i&gt;&lt;font color=&quot;#5e5e5e&quot;&gt;// Para ver seus atributos, visite: &lt;a href=&quot;https://app.diagrams.net/#HGiovanniMendesC%2Fdiagrama-classes-LSM%2Fmain%2FSim.drawio#%7B%22pageId%22%3A%22yRpw1XDFjLFixnUvcPBG%22%7D&quot;&gt;Sim&lt;/a&gt;&lt;/font&gt;&lt;/i&gt;&lt;/p&gt;" style="verticalAlign=top;align=left;overflow=fill;html=1;whiteSpace=wrap;" parent="1" vertex="1">
          <mxGeometry x="1161" y="560" width="369" height="120" as="geometry" />
        </mxCell>
        <mxCell id="Oh8FK2zyh--omqNR-Jqu-7" value="&lt;p style=&quot;margin:0px;margin-top:4px;text-align:center;&quot;&gt;&lt;b&gt;Simcard&lt;/b&gt;&lt;/p&gt;&lt;hr size=&quot;1&quot; style=&quot;border-style:solid;&quot;&gt;&lt;p style=&quot;margin:0px;margin-left:4px;&quot;&gt;&lt;i&gt;&lt;font color=&quot;#5e5e5e&quot;&gt;&amp;nbsp;// Classe que representa a entidade Simcard&lt;/font&gt;&lt;/i&gt;&lt;/p&gt;&lt;p style=&quot;margin:0px;margin-left:4px;&quot;&gt;&lt;i&gt;&lt;font color=&quot;#5e5e5e&quot;&gt;&lt;br&gt;&lt;/font&gt;&lt;/i&gt;&lt;/p&gt;&lt;p style=&quot;margin:0px;margin-left:4px;&quot;&gt;&lt;i&gt;&lt;font color=&quot;#5e5e5e&quot;&gt;&amp;nbsp;// Para ver seus atributos, visite: &lt;a href=&quot;https://app.diagrams.net/#HGiovanniMendesC%2Fdiagrama-classes-LSM%2Fmain%2FSimcard.drawio#%7B%22pageId%22%3A%22Qr7C4V2x-PXOIc3cPiJR%22%7D&quot;&gt;Simcard&lt;/a&gt;&lt;/font&gt;&lt;/i&gt;&lt;/p&gt;" style="verticalAlign=top;align=left;overflow=fill;html=1;whiteSpace=wrap;" parent="1" vertex="1">
          <mxGeometry x="1161" y="740" width="369" height="120" as="geometry" />
        </mxCell>
        <mxCell id="Oh8FK2zyh--omqNR-Jqu-9" value="&lt;p style=&quot;margin:0px;margin-top:4px;text-align:center;&quot;&gt;&lt;b&gt;ServiceOrder&lt;/b&gt;&lt;/p&gt;&lt;hr size=&quot;1&quot; style=&quot;border-style:solid;&quot;&gt;&lt;p style=&quot;margin:0px;margin-left:4px;&quot;&gt;&amp;nbsp;&lt;i&gt;&lt;font color=&quot;#5e5e5e&quot;&gt;// Classe que representa a entidade Service Order&lt;/font&gt;&lt;/i&gt;&lt;/p&gt;&lt;p style=&quot;margin:0px;margin-left:4px;&quot;&gt;&lt;i&gt;&lt;font color=&quot;#5e5e5e&quot;&gt;&lt;br&gt;&lt;/font&gt;&lt;/i&gt;&lt;/p&gt;&lt;p style=&quot;margin:0px;margin-left:4px;&quot;&gt;&lt;i&gt;&lt;font color=&quot;#5e5e5e&quot;&gt;&amp;nbsp;// Para ver seus atributos, visite: &lt;a href=&quot;https://app.diagrams.net/#HGiovanniMendesC%2Fdiagrama-classes-LSM%2Fmain%2FServiceOrder.drawio#%7B%22pageId%22%3A%222EBOzLPNM899C_6N9tym%22%7D&quot;&gt;ServiceOrder&lt;/a&gt;&lt;/font&gt;&lt;/i&gt;&lt;/p&gt;" style="verticalAlign=top;align=left;overflow=fill;html=1;whiteSpace=wrap;" parent="1" vertex="1">
          <mxGeometry x="631" y="740" width="369" height="120" as="geometry" />
        </mxCell>
      </root>
    </mxGraphModel>
  </diagram>
</mxfile>
